<svg width="19" height="186" viewBox="0 0 19 186" fill="none" xmlns="http://www.w3.org/2000/svg">
<path d="M10.4494 17V9.25811H13.1149L13.5111 6.22692H10.4494V4.29617C10.4494 3.42148 10.6981 2.8226 11.9793 2.8226H13.6026V0.120123C12.8128 0.0371794 12.0188 -0.00286969 11.2244 0.000159793C8.86839 0.000159793 7.25078 1.40949 7.25078 3.99673V6.22125H4.60265V9.25245H7.25657V17H10.4494Z" fill="#FAFAFA"/>
<path d="M9.10063 60.6518C6.97111 60.6518 5.25248 62.3704 5.25248 64.5C5.25248 66.6296 6.97111 68.3482 9.10063 68.3482C11.2302 68.3482 12.9488 66.6296 12.9488 64.5C12.9488 62.3704 11.2302 60.6518 9.10063 60.6518ZM9.10063 67.0011C7.72347 67.0011 6.59961 65.8772 6.59961 64.5C6.59961 63.1228 7.72347 61.9989 9.10063 61.9989C10.4778 61.9989 11.6016 63.1228 11.6016 64.5C11.6016 65.8772 10.4778 67.0011 9.10063 67.0011ZM13.1064 59.5973C12.6092 59.5973 12.2077 59.9988 12.2077 60.496C12.2077 60.9933 12.6092 61.3948 13.1064 61.3948C13.6036 61.3948 14.0051 60.9951 14.0051 60.496C14.0053 60.378 13.9821 60.261 13.937 60.1519C13.8919 60.0428 13.8257 59.9437 13.7422 59.8602C13.6587 59.7767 13.5596 59.7105 13.4505 59.6654C13.3414 59.6203 13.2245 59.5972 13.1064 59.5973ZM16.6018 64.5C16.6018 63.4643 16.6112 62.438 16.553 61.4042C16.4949 60.2033 16.2209 59.1376 15.3429 58.2595C14.4629 57.3796 13.3991 57.1075 12.1983 57.0493C11.1626 56.9912 10.1363 57.0006 9.10251 57.0006C8.06682 57.0006 7.04053 56.9912 6.00672 57.0493C4.80593 57.1075 3.74023 57.3814 2.86216 58.2595C1.9822 59.1395 1.71015 60.2033 1.65199 61.4042C1.59382 62.4399 1.6032 63.4662 1.6032 64.5C1.6032 65.5338 1.59382 66.562 1.65199 67.5958C1.71015 68.7967 1.98408 69.8624 2.86216 70.7405C3.74211 71.6204 4.80593 71.8925 6.00672 71.9507C7.0424 72.0088 8.0687 71.9994 9.10251 71.9994C10.1382 71.9994 11.1645 72.0088 12.1983 71.9507C13.3991 71.8925 14.4648 71.6186 15.3429 70.7405C16.2228 69.8605 16.4949 68.7967 16.553 67.5958C16.6131 66.562 16.6018 65.5357 16.6018 64.5ZM14.9507 68.9242C14.8138 69.2657 14.6487 69.5209 14.3841 69.7836C14.1196 70.0481 13.8663 70.2132 13.5248 70.3502C12.5379 70.7423 10.1945 70.6542 9.10063 70.6542C8.00679 70.6542 5.6615 70.7423 4.6746 70.3521C4.33312 70.2151 4.07796 70.05 3.81528 69.7854C3.55073 69.5209 3.38563 69.2676 3.24866 68.9261C2.8584 67.9373 2.94659 65.5939 2.94659 64.5C2.94659 63.4061 2.8584 61.0608 3.24866 60.0739C3.38563 59.7324 3.55073 59.4772 3.81528 59.2146C4.07983 58.9519 4.33312 58.7849 4.6746 58.6479C5.6615 58.2577 8.00679 58.3458 9.10063 58.3458C10.1945 58.3458 12.5398 58.2577 13.5267 58.6479C13.8681 58.7849 14.1233 58.95 14.386 59.2146C14.6505 59.4791 14.8156 59.7324 14.9526 60.0739C15.3429 61.0608 15.2547 63.4061 15.2547 64.5C15.2547 65.5939 15.3429 67.9373 14.9507 68.9242Z" fill="#FAFAFA"/>
<path d="M17.6026 113.782C16.9775 114.075 16.2972 114.286 15.5964 114.368C16.3239 113.898 16.8688 113.157 17.1287 112.282C16.446 112.723 15.698 113.032 14.9181 113.196C14.5921 112.818 14.1979 112.516 13.7599 112.31C13.322 112.104 12.8497 111.999 12.3725 112C10.4418 112 8.88915 113.7 8.88915 115.786C8.88915 116.078 8.92184 116.371 8.97496 116.653C6.08408 116.489 3.50578 114.989 1.79169 112.692C1.47936 113.272 1.31569 113.931 1.3177 114.603C1.3177 115.916 1.93265 117.075 2.8704 117.756C2.31777 117.732 1.77808 117.567 1.29523 117.274V117.321C1.29523 119.161 2.49244 120.685 4.08804 121.036C3.78845 121.12 3.48026 121.163 3.17073 121.164C2.94395 121.164 2.72943 121.14 2.51287 121.107C2.95417 122.607 4.23923 123.696 5.76945 123.732C4.57224 124.75 3.07266 125.349 1.44437 125.349C1.15222 125.349 0.88254 125.338 0.602646 125.303C2.14717 126.379 3.97976 127 5.95332 127C12.3602 127 15.8661 121.235 15.8661 116.232C15.8661 116.067 15.8661 115.903 15.8559 115.739C16.5341 115.2 17.1287 114.532 17.6026 113.782Z" fill="#FAFAFA"/>
<path d="M2.188 171.376C3.3964 171.376 4.376 170.396 4.376 169.188C4.376 167.98 3.3964 167 2.188 167C0.979601 167 0 167.98 0 169.188C0 170.396 0.979601 171.376 2.188 171.376Z" fill="#FAFAFA"/>
<path d="M6.44229 173.033V185.172H10.2113V179.169C10.2113 177.585 10.5093 176.051 12.4733 176.051C14.4103 176.051 14.4343 177.862 14.4343 179.269V185.173H18.2053V178.516C18.2053 175.246 17.5013 172.733 13.6793 172.733C11.8443 172.733 10.6143 173.74 10.1113 174.693H10.0603V173.033H6.44229ZM0.300293 173.033H4.07529V185.172H0.300293V173.033Z" fill="#FAFAFA"/>
</svg>
